<?xml version="1.0" encoding="UTF-8"?><svg id="a" xmlns="http://www.w3.org/2000/svg" width="128" height="108" viewBox="0 0 128 108"><defs><style>.b{fill:#29abe2;}</style></defs><polygon class="b" points="0 0 27 0 27 9.16 9 9.16 9 98.97 27 98.97 27 108 0 108 0 0"/><polygon class="b" points="128 0 101 0 101 9.16 119 9.16 119 98.97 101 98.97 101 108 128 108 128 0"/><path class="b" d="m37.29,47.21l-11.15,11.15c-9.53,9.53-9.53,24.97,0,34.49,9.53,9.53,24.97,9.53,34.49,0h0l14.86-14.87c9.52-9.53,9.52-24.97,0-34.49-1.96-1.96-4.23-3.57-6.73-4.76l-4.76,4.76c-.48.48-.9,1.03-1.25,1.62,8.63,2.48,13.62,11.49,11.13,20.12-.76,2.65-2.18,5.06-4.13,7.01l-14.85,14.86c-6.35,6.35-16.65,6.35-23.01,0-6.35-6.35-6.35-16.65,0-23.01l6.45-6.44c-.91-3.41-1.26-6.94-1.04-10.46h0Z"/><path class="b" d="m52.5,32.01c-9.52,9.53-9.52,24.97,0,34.49,1.96,1.96,4.23,3.57,6.73,4.76l6.3-6.31c-8.67-2.33-13.82-11.24-11.49-19.92.74-2.76,2.19-5.27,4.21-7.29l14.85-14.86c6.35-6.35,16.65-6.35,23.01,0,6.35,6.35,6.35,16.65,0,23.01h0l-6.45,6.44c.91,3.41,1.26,6.95,1.04,10.46l11.15-11.15c9.53-9.53,9.53-24.97,0-34.49-9.53-9.53-24.97-9.53-34.49,0l-14.86,14.86Z"/></svg>